<svg width="46" height="22" viewBox="0 0 46 22" fill="none" xmlns="http://www.w3.org/2000/svg">
<g opacity="0.56">
<path d="M5.25 16.4867C4.55 16.4867 3.91533 16.3467 3.346 16.0667C2.77667 15.7867 2.28667 15.4087 1.876 14.9327C1.46533 14.4474 1.148 13.9061 0.924 13.3087C0.7 12.7021 0.588 12.0814 0.588 11.4467C0.588 10.7841 0.704667 10.1541 0.938 9.55673C1.17133 8.95006 1.498 8.41339 1.918 7.94673C2.34733 7.47073 2.84667 7.09739 3.416 6.82673C3.98533 6.54673 4.60133 6.40673 5.264 6.40673C5.964 6.40673 6.59867 6.55139 7.168 6.84073C7.73733 7.13006 8.22267 7.51739 8.624 8.00273C9.03467 8.48806 9.352 9.02939 9.576 9.62673C9.8 10.2241 9.912 10.8354 9.912 11.4607C9.912 12.1234 9.79533 12.7581 9.562 13.3647C9.32867 13.9621 9.002 14.4987 8.582 14.9747C8.162 15.4414 7.66733 15.8101 7.098 16.0807C6.52867 16.3514 5.91267 16.4867 5.25 16.4867ZM1.568 11.4467C1.568 11.9881 1.65667 12.5107 1.834 13.0147C2.01133 13.5094 2.26333 13.9527 2.59 14.3447C2.91667 14.7274 3.304 15.0354 3.752 15.2687C4.20933 15.4927 4.70867 15.6047 5.25 15.6047C5.81933 15.6047 6.328 15.4881 6.776 15.2547C7.23333 15.0121 7.62067 14.6947 7.938 14.3027C8.26467 13.9014 8.512 13.4534 8.68 12.9587C8.848 12.4641 8.932 11.9601 8.932 11.4467C8.932 10.9054 8.84333 10.3874 8.666 9.89273C8.48867 9.39806 8.232 8.95473 7.896 8.56273C7.56933 8.17073 7.182 7.86273 6.734 7.63873C6.286 7.41473 5.79133 7.30273 5.25 7.30273C4.69 7.30273 4.18133 7.41939 3.724 7.65273C3.276 7.88606 2.88867 8.20339 2.562 8.60473C2.24467 8.99673 1.99733 9.44006 1.82 9.93473C1.652 10.4294 1.568 10.9334 1.568 11.4467ZM31.8744 15.5487V16.4167H25.1964V6.47673H31.7484V7.34473H26.1764V10.9287H31.0344V11.7547H26.1764V15.5487H31.8744ZM42.5056 15.5487V16.4167H35.8276V6.47673H42.3796V7.34473H36.8076V10.9287H41.6656V11.7547H36.8076V15.5487H42.5056Z" fill="white"/>
<path d="M3.346 16.0667L2.90468 16.9641L2.90468 16.9641L3.346 16.0667ZM1.876 14.9327L1.11258 15.5787L1.11884 15.586L1.876 14.9327ZM0.924 13.3087L-0.0141085 13.6551L-0.0123292 13.6599L0.924 13.3087ZM0.938 9.55673L1.86947 9.92058L1.87135 9.91571L0.938 9.55673ZM1.918 7.94673L1.17543 7.27696L1.17471 7.27776L1.918 7.94673ZM3.416 6.82673L3.8454 7.72994L3.85732 7.72408L3.416 6.82673ZM7.168 6.84073L6.71495 7.73221L6.71495 7.73221L7.168 6.84073ZM8.624 8.00273L7.85331 8.64003L7.86061 8.64867L8.624 8.00273ZM9.576 9.62673L8.63967 9.97785L8.63967 9.97785L9.576 9.62673ZM9.562 13.3647L10.4935 13.7286L10.4953 13.7237L9.562 13.3647ZM8.582 14.9747L9.32533 15.6437L9.33184 15.6363L8.582 14.9747ZM7.098 16.0807L7.52736 16.9839L7.52736 16.9839L7.098 16.0807ZM1.834 13.0147L0.890671 13.3466L0.892661 13.3522L1.834 13.0147ZM2.59 14.3447L1.82172 14.985L1.82944 14.994L2.59 14.3447ZM3.752 15.2687L3.29007 16.1556L3.30103 16.1614L3.31213 16.1668L3.752 15.2687ZM6.776 15.2547L7.23795 16.1417L7.24472 16.1381L6.776 15.2547ZM7.938 14.3027L7.16244 13.6715L7.16076 13.6735L7.938 14.3027ZM8.68 12.9587L7.73312 12.6371L7.73312 12.6371L8.68 12.9587ZM8.666 9.89273L7.72466 10.2302L7.72466 10.2302L8.666 9.89273ZM7.896 8.56273L7.1277 9.20297L7.13674 9.21352L7.896 8.56273ZM3.724 7.65273L3.26951 6.76193L3.26207 6.76581L3.724 7.65273ZM2.562 8.60473L1.78644 7.97345L1.78476 7.97553L2.562 8.60473ZM1.82 9.93473L0.878661 9.59727L0.875823 9.60518L0.873119 9.61314L1.82 9.93473ZM5.25 15.4867C4.687 15.4867 4.20565 15.3751 3.78732 15.1694L2.90468 16.9641C3.62502 17.3183 4.413 17.4867 5.25 17.4867V15.4867ZM3.78732 15.1694C3.33746 14.9481 2.95519 14.6528 2.63316 14.2795L1.11884 15.586C1.61814 16.1647 2.21588 16.6253 2.90468 16.9641L3.78732 15.1694ZM2.63939 14.2868C2.30312 13.8894 2.04417 13.4478 1.86033 12.9576L-0.0123292 13.6599C0.25183 14.3643 0.627547 15.0054 1.11261 15.5787L2.63939 14.2868ZM1.8621 12.9624C1.67825 12.4644 1.588 11.9609 1.588 11.4467H-0.412C-0.412 12.2019 -0.27825 12.9397 -0.0140965 13.6551L1.8621 12.9624ZM1.588 11.4467C1.588 10.9043 1.68293 10.3981 1.86946 9.92058L0.0065427 9.19288C-0.2736 9.91004 -0.412 10.6638 -0.412 11.4467H1.588ZM1.87135 9.91571C2.06238 9.41902 2.32594 8.98831 2.66129 8.61569L1.17471 7.27776C0.670062 7.83848 0.280289 8.4811 0.00465445 9.19775L1.87135 9.91571ZM2.66057 8.6165C3.00337 8.23643 3.39679 7.94312 3.84536 7.72986L2.98664 5.92359C2.29655 6.25167 1.69129 6.70502 1.17543 7.27696L2.66057 8.6165ZM3.85732 7.72408C4.28319 7.51463 4.74736 7.40673 5.264 7.40673V5.40673C4.45531 5.40673 3.68747 5.57882 2.97468 5.92938L3.85732 7.72408ZM5.264 7.40673C5.82194 7.40673 6.2991 7.52088 6.71495 7.73221L7.62105 5.94924C6.89824 5.58191 6.10606 5.40673 5.264 5.40673V7.40673ZM6.71495 7.73221C7.16389 7.96036 7.5406 8.26178 7.85336 8.63999L9.39465 7.36546C8.90473 6.77301 8.31078 6.29976 7.62105 5.94924L6.71495 7.73221ZM7.86061 8.64867C8.19688 9.04607 8.45583 9.48761 8.63967 9.97785L10.5123 9.2756C10.2482 8.57118 9.87245 7.93005 9.38739 7.35678L7.86061 8.64867ZM8.63967 9.97785C8.82243 10.4652 8.912 10.9577 8.912 11.4607H10.912C10.912 10.713 10.7776 9.9829 10.5123 9.2756L8.63967 9.97785ZM8.912 11.4607C8.912 12.0031 8.81706 12.5159 8.62865 13.0057L10.4953 13.7237C10.7736 13.0002 10.912 12.2437 10.912 11.4607H8.912ZM8.63054 13.0009C8.43939 13.4902 8.17384 13.9259 7.83216 14.3131L9.33184 15.6363C9.83016 15.0716 10.2179 14.4339 10.4935 13.7286L8.63054 13.0009ZM7.83871 14.3058C7.50726 14.674 7.11942 14.9633 6.66864 15.1776L7.52736 16.9839C8.21525 16.6568 8.81674 16.2088 9.32529 15.6437L7.83871 14.3058ZM6.66864 15.1776C6.24032 15.3812 5.77192 15.4867 5.25 15.4867V17.4867C6.05341 17.4867 6.81701 17.3216 7.52736 16.9839L6.66864 15.1776ZM0.568 11.4467C0.568 12.0996 0.675334 12.7346 0.890688 13.3466L2.77731 12.6828C2.638 12.2869 2.568 11.8765 2.568 11.4467H0.568ZM0.892661 13.3522C1.10833 13.9538 1.41788 14.5002 1.82178 14.9849L3.35822 13.7045C3.10879 13.4052 2.91434 13.065 2.77534 12.6773L0.892661 13.3522ZM1.82944 14.994C2.2398 15.4747 2.72865 15.8632 3.29007 16.1556L4.21393 14.3818C3.87935 14.2075 3.59353 13.9801 3.35056 13.6955L1.82944 14.994ZM3.31213 16.1668C3.91497 16.4621 4.56603 16.6047 5.25 16.6047V14.6047C4.85131 14.6047 4.5037 14.5234 4.19187 14.3707L3.31213 16.1668ZM5.25 16.6047C5.95948 16.6047 6.63001 16.4583 7.23793 16.1416L6.31407 14.3678C6.02599 14.5179 5.67918 14.6047 5.25 14.6047V16.6047ZM7.24472 16.1381C7.81772 15.834 8.31095 15.4313 8.71525 14.9319L7.16076 13.6735C6.93038 13.9581 6.64895 14.1901 6.30728 14.3714L7.24472 16.1381ZM8.71356 14.934C9.11602 14.4395 9.42102 13.8865 9.62688 13.2803L7.73312 12.6371C7.60299 13.0203 7.41331 13.3632 7.16244 13.6715L8.71356 14.934ZM9.62688 13.2803C9.82942 12.6839 9.932 12.0714 9.932 11.4467H7.932C7.932 11.8487 7.86658 12.2442 7.73312 12.6371L9.62688 13.2803ZM9.932 11.4467C9.932 10.7939 9.82466 10.1615 9.60734 9.55527L7.72466 10.2302C7.86201 10.6133 7.932 11.0169 7.932 11.4467H9.932ZM9.60734 9.55527C9.38965 8.94802 9.07196 8.39808 8.65526 7.91193L7.13674 9.21352C7.39204 9.51137 7.58768 9.8481 7.72466 10.2302L9.60734 9.55527ZM8.66422 7.92254C8.25094 7.4266 7.75496 7.03117 7.18121 6.7443L6.28679 8.53315C6.60904 8.69428 6.88773 8.91485 7.12778 9.20291L8.66422 7.92254ZM7.18121 6.7443C6.58335 6.44537 5.93378 6.30273 5.25 6.30273V8.30273C5.64889 8.30273 5.98865 8.38409 6.28679 8.53315L7.18121 6.7443ZM5.25 6.30273C4.54662 6.30273 3.88006 6.45047 3.26953 6.76196L4.17847 8.54349C4.48261 8.38832 4.83338 8.30273 5.25 8.30273V6.30273ZM3.26207 6.76581C2.6902 7.06366 2.19698 7.46908 1.78644 7.97346L3.33756 9.236C3.58036 8.93771 3.8618 8.70846 4.18594 8.53964L3.26207 6.76581ZM1.78476 7.97553C1.39379 8.45849 1.09231 9.00131 0.878661 9.59727L2.76134 10.2722C2.90236 9.87881 3.09555 9.53496 3.33924 9.23393L1.78476 7.97553ZM0.873119 9.61314C0.670577 10.2095 0.568 10.8221 0.568 11.4467H2.568C2.568 11.0447 2.63342 10.6493 2.76688 10.2563L0.873119 9.61314ZM31.8744 15.5487H32.8744V14.5487H31.8744V15.5487ZM31.8744 16.4167V17.4167H32.8744V16.4167H31.8744ZM25.1964 16.4167H24.1964V17.4167H25.1964V16.4167ZM25.1964 6.47673V5.47673H24.1964V6.47673H25.1964ZM31.7484 6.47673H32.7484V5.47673H31.7484V6.47673ZM31.7484 7.34473V8.34473H32.7484V7.34473H31.7484ZM26.1764 7.34473V6.34473H25.1764V7.34473H26.1764ZM26.1764 10.9287H25.1764V11.9287H26.1764V10.9287ZM31.0344 10.9287H32.0344V9.92873H31.0344V10.9287ZM31.0344 11.7547V12.7547H32.0344V11.7547H31.0344ZM26.1764 11.7547V10.7547H25.1764V11.7547H26.1764ZM26.1764 15.5487H25.1764V16.5487H26.1764V15.5487ZM30.8744 15.5487V16.4167H32.8744V15.5487H30.8744ZM31.8744 15.4167H25.1964V17.4167H31.8744V15.4167ZM26.1964 16.4167V6.47673H24.1964V16.4167H26.1964ZM25.1964 7.47673H31.7484V5.47673H25.1964V7.47673ZM30.7484 6.47673V7.34473H32.7484V6.47673H30.7484ZM31.7484 6.34473H26.1764V8.34473H31.7484V6.34473ZM25.1764 7.34473V10.9287H27.1764V7.34473H25.1764ZM26.1764 11.9287H31.0344V9.92873H26.1764V11.9287ZM30.0344 10.9287V11.7547H32.0344V10.9287H30.0344ZM31.0344 10.7547H26.1764V12.7547H31.0344V10.7547ZM25.1764 11.7547V15.5487H27.1764V11.7547H25.1764ZM26.1764 16.5487H31.8744V14.5487H26.1764V16.5487ZM42.5056 15.5487H43.5056V14.5487H42.5056V15.5487ZM42.5056 16.4167V17.4167H43.5056V16.4167H42.5056ZM35.8276 16.4167H34.8276V17.4167H35.8276V16.4167ZM35.8276 6.47673V5.47673H34.8276V6.47673H35.8276ZM42.3796 6.47673H43.3796V5.47673H42.3796V6.47673ZM42.3796 7.34473V8.34473H43.3796V7.34473H42.3796ZM36.8076 7.34473V6.34473H35.8076V7.34473H36.8076ZM36.8076 10.9287H35.8076V11.9287H36.8076V10.9287ZM41.6656 10.9287H42.6656V9.92873H41.6656V10.9287ZM41.6656 11.7547V12.7547H42.6656V11.7547H41.6656ZM36.8076 11.7547V10.7547H35.8076V11.7547H36.8076ZM36.8076 15.5487H35.8076V16.5487H36.8076V15.5487ZM41.5056 15.5487V16.4167H43.5056V15.5487H41.5056ZM42.5056 15.4167H35.8276V17.4167H42.5056V15.4167ZM36.8276 16.4167V6.47673H34.8276V16.4167H36.8276ZM35.8276 7.47673H42.3796V5.47673H35.8276V7.47673ZM41.3796 6.47673V7.34473H43.3796V6.47673H41.3796ZM42.3796 6.34473H36.8076V8.34473H42.3796V6.34473ZM35.8076 7.34473V10.9287H37.8076V7.34473H35.8076ZM36.8076 11.9287H41.6656V9.92873H36.8076V11.9287ZM40.6656 10.9287V11.7547H42.6656V10.9287H40.6656ZM41.6656 10.7547H36.8076V12.7547H41.6656V10.7547ZM35.8076 11.7547V15.5487H37.8076V11.7547H35.8076ZM36.8076 16.5487H42.5056V14.5487H36.8076V16.5487Z" fill="white"/>
</g>
<path d="M16.383 16.8667L12.2411 7.83081L13.132 7.42245L16.9122 15.6693L22.1302 13.2775L22.4918 14.0666L16.383 16.8667Z" fill="#FFA500"/>
<path d="M16.383 16.8667L15.474 17.2834L15.8907 18.1925L16.7997 17.7758L16.383 16.8667ZM12.2411 7.83081L11.8244 6.92176L10.9154 7.33845L11.3321 8.2475L12.2411 7.83081ZM13.132 7.42245L14.041 7.00576L13.6244 6.09671L12.7153 6.5134L13.132 7.42245ZM16.9122 15.6693L16.0032 16.086L16.4199 16.9951L17.3289 16.5784L16.9122 15.6693ZM22.1302 13.2775L23.0392 12.8608L22.6225 11.9518L21.7135 12.3685L22.1302 13.2775ZM22.4918 14.0666L22.9085 14.9756L23.8176 14.5589L23.4009 13.6499L22.4918 14.0666ZM17.2921 16.4501L13.1502 7.41412L11.3321 8.2475L15.474 17.2834L17.2921 16.4501ZM12.6578 8.73986L13.5487 8.3315L12.7153 6.5134L11.8244 6.92176L12.6578 8.73986ZM12.223 7.83914L16.0032 16.086L17.8213 15.2526L14.041 7.00576L12.223 7.83914ZM17.3289 16.5784L22.5469 14.1866L21.7135 12.3685L16.4955 14.7603L17.3289 16.5784ZM21.2211 13.6942L21.5828 14.4833L23.4009 13.6499L23.0392 12.8608L21.2211 13.6942ZM22.0752 13.1575L15.9664 15.9577L16.7997 17.7758L22.9085 14.9756L22.0752 13.1575Z" fill="#FFA500"/>
</svg>
